<svg width="54" height="51" viewBox="0 0 54 51" fill="none" xmlns="http://www.w3.org/2000/svg">
<rect x="0.353553" y="25.2727" width="35.5" height="35.5" rx="1.75" transform="rotate(-45 0.353553 25.2727)" stroke="#454545" stroke-width="0.5"/>
<rect x="3.60708" y="25.5263" width="35.5" height="35.5" rx="1.75" transform="rotate(-45 3.60708 25.5263)" stroke="#FFD752" stroke-width="0.5"/>
<path d="M26.3904 10C26.6332 10.1106 26.8246 10.2682 26.9902 10.4924C27.6967 11.4513 27.4263 13.0182 27.3233 14.1427C28.3243 14.3358 29.3183 14.5468 30.2776 14.923C31.2881 15.3195 33.7439 16.7671 34.6217 16.8067C35.5854 16.8501 35.4792 15.6413 36.0379 15.1895C36.1649 15.0867 36.2742 15.0788 36.4221 15.123C36.6192 15.1816 36.9144 15.4675 37.0054 15.6625C37.0957 15.8572 37.1122 16.0332 37.03 16.2367C36.7665 16.8887 35.945 17.2006 35.3775 17.4346C36.2552 19.6989 36.9359 22.0491 37.6411 24.381C37.9565 25.425 38.2282 26.5006 38.6232 27.5126L39.1932 27.8244C39.1268 28.1505 39.0314 28.4801 38.8924 28.7788C38.4532 29.7222 37.6417 30.4101 36.7267 30.7445C35.6037 31.1549 34.2886 31.0473 33.2295 30.4739C32.2537 29.9456 31.721 29.1405 31.3899 28.0354C32.6291 26.2698 33.0146 23.9104 33.644 21.8298C34.0984 20.3263 34.5882 18.8357 35.1127 17.3593C32.2108 16.9364 30.0697 15.4051 26.8828 15.3289C26.83 16.2439 26.8525 17.1691 26.8544 18.086C26.6267 18.1441 26.4005 18.1718 26.1688 18.1415C26.0168 17.9094 26.0916 15.8283 26.0587 15.3208C23.2587 15.3539 20.7291 16.7105 18.0399 17.3667C18.7982 19.5941 19.5041 21.842 20.157 24.1083C20.4454 25.0953 20.6083 26.2084 21.0235 27.1391C21.1762 27.4811 21.3728 27.6469 21.6452 27.8723C21.6041 28.0779 21.5659 28.2889 21.5079 28.4896C21.2644 29.3303 20.6706 30.0566 19.9588 30.4656C18.8885 31.0809 17.4843 31.0953 16.3521 30.6842C15.487 30.3697 14.5221 29.6777 14.1247 28.7589C14.0094 28.4917 13.9464 28.1711 14.0595 27.8908C14.1434 27.6825 14.33 27.6079 14.5073 27.5188C15.0517 25.9951 15.4666 24.413 15.9377 22.8606C16.5019 21.0138 17.0994 19.1792 17.7298 17.3577C17.3042 17.3101 16.9876 17.2586 16.6297 16.9846C16.3246 16.7509 15.9285 16.351 15.9 15.9166C15.8889 15.747 15.9555 15.6134 16.0601 15.494C16.2208 15.3107 16.5365 15.141 16.7706 15.1398C17.3264 15.1371 17.3138 16.2496 17.7056 16.5775C18.4293 17.1832 21.9359 15.2417 22.9086 14.8965C23.799 14.5828 24.7123 14.3515 25.6387 14.2051C25.5889 13.7823 25.5335 13.356 25.5065 12.9307C25.4326 11.7674 25.6822 10.8894 26.3904 10ZM14.8272 27.6853L17.9329 27.6908L20.8992 27.6983C20.2907 25.8489 19.7754 23.9741 19.2513 22.0955C18.8633 20.7049 18.534 19.0939 17.856 17.8362C16.7525 21.0844 15.7424 24.369 14.8272 27.6853ZM32.236 27.6305C33.2535 27.6688 34.2716 27.6873 35.2896 27.6846L38.311 27.6839C37.7024 25.6467 37.0831 23.6132 36.453 21.5835C36.1377 20.5403 35.8875 19.4554 35.5272 18.431C35.4489 18.2075 35.3693 17.9984 35.2087 17.8301C34.1629 21.0764 33.2415 24.3691 32.236 27.6305Z" fill="black"/>
<path d="M26.7923 26.8049L26.8594 26.8645C27.0497 27.3509 26.9391 28.0155 26.9068 28.5328C27.3555 29.2433 27.8699 29.6901 27.9565 30.6013C27.9919 30.9809 27.9932 31.4118 28.1063 31.7736C28.1752 31.9935 28.2687 32.1881 28.4621 32.3032C29.4953 32.9158 33.6795 32.7842 35.2088 32.9795C36.3646 33.1268 37.4408 33.3892 38.4848 33.9565C36.9839 34.0963 35.5108 34.0072 34.0093 34.0004L27.1223 34.0161L19.671 34.049C18.4462 34.0545 17.1736 34.1538 15.9541 34.0524C15.7342 34.0339 15.4236 34.036 15.2791 33.8517C15.872 32.739 22.454 32.9288 23.8717 32.5211C25.2163 32.1347 24.7497 30.9172 25.225 29.8216C25.4257 29.3584 25.7068 29.0549 26.0399 28.7055L26.0601 27.7504C26.2755 27.4119 26.5405 27.1118 26.7923 26.8049Z" fill="black"/>
<path d="M30.9652 18.424C31.769 18.4117 32.5691 18.4349 33.3723 18.4647C33.165 18.7428 32.9217 18.9975 32.6948 19.2575C30.7307 19.3008 28.7704 19.2797 26.806 19.2686L26.8028 22.4007C27.9464 22.4106 29.0902 22.4037 30.234 22.3799C29.9819 22.6403 29.7184 22.8898 29.4612 23.1434L28.5101 23.145L26.8433 23.1559C26.6967 24.173 26.7836 25.2914 26.7972 26.3223C26.5916 26.623 26.3722 26.8751 26.1258 27.1357C25.8995 24.3136 26.0843 21.302 26.1044 18.4593L30.9652 18.424Z" fill="black"/>
<path d="M28.3464 20.3601C29.2589 20.3204 30.6145 20.3104 31.4221 20.845C31.9005 21.162 32.2209 21.6819 32.3511 22.2694C32.4983 22.9338 32.4155 23.6843 32.0749 24.2662C31.7457 24.8295 31.2338 25.117 30.6423 25.2423C30.1854 25.339 28.1037 25.4486 27.7726 25.2125C27.9792 24.9588 28.2093 24.7228 28.4286 24.4815C28.7635 24.4995 29.0984 24.5095 29.434 24.5115C30.0388 24.5136 30.7857 24.4835 31.2287 23.9707C31.4967 23.66 31.5662 23.2442 31.5542 22.8314C31.534 22.12 31.1561 21.7343 30.7086 21.2783C29.9162 21.2354 28.0494 21.4582 27.4187 21.1568C27.2613 21.0818 27.2203 21.0164 27.1552 20.8501C27.1798 20.7227 27.195 20.6605 27.2753 20.5579C27.4655 20.314 28.069 20.3701 28.3464 20.3601Z" fill="black"/>
<path d="M24.5074 20.4086C24.8662 20.3829 25.1777 20.3528 25.5117 20.5273C25.6909 20.621 25.7854 20.6996 25.8506 20.9041L25.7708 21.0651C25.5791 21.2118 25.4187 21.2506 25.1902 21.2995C25.1532 23.806 25.232 26.3105 25.1789 28.8185C24.9917 29.098 24.7313 29.3399 24.5054 29.5838C24.4894 26.5254 24.49 23.467 24.5074 20.4086Z" fill="black"/>
</svg>
