<svg width="54" height="51" viewBox="0 0 54 51" fill="none" xmlns="http://www.w3.org/2000/svg">
<rect x="0.353553" y="25.2727" width="35.5" height="35.5" rx="1.75" transform="rotate(-45 0.353553 25.2727)" stroke="#454545" stroke-width="0.5"/>
<rect x="3.60708" y="25.5263" width="35.5" height="35.5" rx="1.75" transform="rotate(-45 3.60708 25.5263)" stroke="#FFD752" stroke-width="0.5"/>
<path d="M28.3904 10C28.6332 10.1106 28.8246 10.2682 28.9902 10.4924C29.6967 11.4513 29.4263 13.0182 29.3233 14.1427C30.3243 14.3358 31.3183 14.5468 32.2776 14.923C33.2881 15.3195 35.7439 16.7671 36.6217 16.8067C37.5854 16.8501 37.4792 15.6413 38.0379 15.1895C38.1649 15.0867 38.2742 15.0788 38.4221 15.123C38.6192 15.1816 38.9144 15.4675 39.0054 15.6625C39.0957 15.8572 39.1122 16.0332 39.03 16.2367C38.7665 16.8887 37.945 17.2006 37.3775 17.4346C38.2552 19.6989 38.9359 22.0491 39.6411 24.381C39.9565 25.425 40.2282 26.5006 40.6232 27.5126L41.1932 27.8244C41.1268 28.1505 41.0314 28.4801 40.8924 28.7788C40.4532 29.7222 39.6417 30.4101 38.7267 30.7445C37.6037 31.1549 36.2886 31.0473 35.2295 30.4739C34.2537 29.9456 33.721 29.1405 33.3899 28.0354C34.6291 26.2698 35.0146 23.9104 35.644 21.8298C36.0984 20.3263 36.5882 18.8357 37.1127 17.3593C34.2108 16.9364 32.0697 15.4051 28.8828 15.3289C28.83 16.2439 28.8525 17.1691 28.8544 18.086C28.6267 18.1441 28.4005 18.1718 28.1688 18.1415C28.0168 17.9094 28.0916 15.8283 28.0587 15.3208C25.2587 15.3539 22.7291 16.7105 20.0399 17.3667C20.7982 19.5941 21.5041 21.842 22.157 24.1083C22.4454 25.0953 22.6083 26.2084 23.0235 27.1391C23.1762 27.4811 23.3728 27.6469 23.6452 27.8723C23.6041 28.0779 23.5659 28.2889 23.5079 28.4896C23.2644 29.3303 22.6706 30.0566 21.9588 30.4656C20.8885 31.0809 19.4843 31.0953 18.3521 30.6842C17.487 30.3697 16.5221 29.6777 16.1247 28.7589C16.0094 28.4917 15.9464 28.1711 16.0595 27.8908C16.1434 27.6825 16.33 27.6079 16.5073 27.5188C17.0517 25.9951 17.4666 24.413 17.9377 22.8606C18.5019 21.0138 19.0994 19.1792 19.7298 17.3577C19.3042 17.3101 18.9876 17.2586 18.6297 16.9846C18.3246 16.7509 17.9285 16.351 17.9 15.9166C17.8889 15.747 17.9555 15.6134 18.0601 15.494C18.2208 15.3107 18.5365 15.141 18.7706 15.1398C19.3264 15.1371 19.3138 16.2496 19.7056 16.5775C20.4293 17.1832 23.9359 15.2417 24.9086 14.8965C25.799 14.5828 26.7123 14.3515 27.6387 14.2051C27.5889 13.7823 27.5335 13.356 27.5065 12.9307C27.4326 11.7674 27.6822 10.8894 28.3904 10ZM16.8272 27.6853L19.9329 27.6908L22.8992 27.6983C22.2907 25.8489 21.7754 23.9741 21.2513 22.0955C20.8633 20.7049 20.534 19.0939 19.856 17.8362C18.7525 21.0844 17.7424 24.369 16.8272 27.6853ZM34.236 27.6305C35.2535 27.6688 36.2716 27.6873 37.2896 27.6846L40.311 27.6839C39.7024 25.6467 39.0831 23.6132 38.453 21.5835C38.1377 20.5403 37.8875 19.4554 37.5272 18.431C37.4489 18.2075 37.3693 17.9984 37.2087 17.8301C36.1629 21.0764 35.2415 24.3691 34.236 27.6305Z" fill="white"/>
<path d="M28.7923 26.8049L28.8594 26.8645C29.0497 27.3509 28.9391 28.0155 28.9068 28.5328C29.3555 29.2433 29.8699 29.6901 29.9565 30.6013C29.9919 30.9809 29.9932 31.4118 30.1063 31.7736C30.1752 31.9935 30.2687 32.1881 30.4621 32.3032C31.4953 32.9158 35.6795 32.7842 37.2088 32.9795C38.3646 33.1268 39.4408 33.3892 40.4848 33.9565C38.9839 34.0963 37.5108 34.0072 36.0093 34.0004L29.1223 34.0161L21.671 34.049C20.4462 34.0545 19.1736 34.1538 17.9541 34.0524C17.7342 34.0339 17.4236 34.036 17.2791 33.8517C17.872 32.739 24.454 32.9288 25.8717 32.5211C27.2163 32.1347 26.7497 30.9172 27.225 29.8216C27.4257 29.3584 27.7068 29.0549 28.0399 28.7055L28.0601 27.7504C28.2755 27.4119 28.5405 27.1118 28.7923 26.8049Z" fill="white"/>
<path d="M32.9652 18.424C33.769 18.4117 34.5691 18.4349 35.3723 18.4647C35.165 18.7428 34.9217 18.9975 34.6948 19.2575C32.7307 19.3008 30.7704 19.2797 28.806 19.2686L28.8028 22.4007C29.9464 22.4106 31.0902 22.4037 32.234 22.3799C31.9819 22.6403 31.7184 22.8898 31.4612 23.1434L30.5101 23.145L28.8433 23.1559C28.6967 24.173 28.7836 25.2914 28.7972 26.3223C28.5916 26.623 28.3722 26.8751 28.1258 27.1357C27.8995 24.3136 28.0843 21.302 28.1044 18.4593L32.9652 18.424Z" fill="white"/>
<path d="M30.3464 20.3601C31.2589 20.3204 32.6145 20.3104 33.4221 20.845C33.9005 21.162 34.2209 21.6819 34.3511 22.2694C34.4983 22.9338 34.4155 23.6843 34.0749 24.2662C33.7457 24.8295 33.2338 25.117 32.6423 25.2423C32.1854 25.339 30.1037 25.4486 29.7726 25.2125C29.9792 24.9588 30.2093 24.7228 30.4286 24.4815C30.7635 24.4995 31.0984 24.5095 31.434 24.5115C32.0388 24.5136 32.7857 24.4835 33.2287 23.9707C33.4967 23.66 33.5662 23.2442 33.5542 22.8314C33.534 22.12 33.1561 21.7343 32.7086 21.2783C31.9162 21.2354 30.0494 21.4582 29.4187 21.1568C29.2613 21.0818 29.2203 21.0164 29.1552 20.8501C29.1798 20.7227 29.195 20.6605 29.2753 20.5579C29.4655 20.314 30.069 20.3701 30.3464 20.3601Z" fill="white"/>
<path d="M26.5074 20.4086C26.8662 20.3829 27.1777 20.3528 27.5117 20.5273C27.6909 20.621 27.7854 20.6996 27.8506 20.9041L27.7708 21.0651C27.5791 21.2118 27.4187 21.2506 27.1902 21.2995C27.1532 23.806 27.232 26.3105 27.1789 28.8185C26.9917 29.098 26.7313 29.3399 26.5054 29.5838C26.4894 26.5254 26.49 23.467 26.5074 20.4086Z" fill="white"/>
</svg>
